# xmcd
# Track frame offsets:
# 150
# 32195
# 58672
# 68706
# 81351
# 95803
# 110137
# 124801
# 138508
# 151737
# 171080
# 197575
# 220052
# 239636
# 255689
# 272710
# 281877
#
# Disc length: 3922 seconds
# Revision: 0
# Processed by: cddbd v1.5.2PL0 Copyright (c) Steve Scherf et al.
# Submitted via: VisiTrax 2.10.3.257 - For more info visit www.synapsa.com
#
DISCID=080f5011
DTITLE=Various Artist - From The Velvets To The Voidoids CD2
DYEAR=2008
DGENRE=American Punk
TTITLE0=Television - Little Johnny Jewel (Parts 1 and 2)
TTITLE1=Patti Smith Group - Gloria
TTITLE2=Ramones - Blitzkreig Bop
TTITLE3=Ramones - Sheena Is A Punk Rocker
TTITLE4=Blondie - X Offender
TTITLE5=Dead Boys - Sonic Reducer
TTITLE6=Dictators - Search and Destroy
TTITLE7=Johnny Thunders and the Heartbreakers - Born To Lose
TTITLE8=Johnny Thunders and the Heartbreakers - Chinese Rocks
TTITLE9=Suicide - Rocket USA
TTITLE10=Rocket from the Tombs - Ain't It Fun
TTITLE11=Pere Ubu - Final Solution
TTITLE12=Talking Heads - Psycho Killer
TTITLE13=Devo - Mongoloid
TTITLE14=Johnny Thunders - You Can't Put Your Arms Around A Memory
TTITLE15=Richard Hell and The Voidoids - Love Comes In Spurts
TTITLE16=Richard Hell and The Voidoids - (I Belong To The) Blank Generation
EXTD=Subbed by http://www.songofthesalesman.co.uk/
EXTT0=
EXTT1=
EXTT2=
EXTT3=
EXTT4=
EXTT5=
EXTT6=
EXTT7=
EXTT8=
EXTT9=
EXTT10=
EXTT11=
EXTT12=
EXTT13=
EXTT14=
EXTT15=
EXTT16=
PLAYORDER=
